# xmcd
# 
# Track frame offsets:
#     150
#     14588
#     33417
#     49659
#     64097
#     82926
# 
# Disc length: 1319
# 
# Revision: 0
# Processed by: cddbd v1.5.2PL0 Copyright (c) Steve Scherf et al.
# Submitted via: fre:ac v1.0.27
# 
DISCID=43052506
DTITLE=predia - シャララ・ナイアガラ
DYEAR=2019
DGENRE=
TTITLE0=シャララ・ナイアガラ
TTITLE1=MyStory
TTITLE2=Love in Clover
TTITLE3=シャララ・ナイアガラ(instrumental)
TTITLE4=MyStory(instrumental)
TTITLE5=Love in Clover(instrumental)
EXTD=
EXTT0=
EXTT1=
EXTT2=
EXTT3=
EXTT4=
EXTT5=
PLAYORDER=
